<svg xmlns="http://www.w3.org/2000/svg" xmlns:xlink="http://www.w3.org/1999/xlink" xmlns:svg="http://www.w3.org/2000/svg" viewBox="0 0 128 128"><g transform="translate(64 116) scale(0.92) translate(-64 -116)"><g transform="translate(0 0) scale(2.6666666666666665)">
  
  <defs
     id="a257defs4571">
    <linearGradient
       id="a257linearGradient4054">
      <stop
         id="a257stop4056"
         style="stop-color:#ffffff;stop-opacity:1"
         offset="0" />
      <stop
         id="a257stop4058"
         style="stop-color:#ffffff;stop-opacity:0.23529412"
         offset="0.06316455" />
      <stop
         id="a257stop4060"
         style="stop-color:#ffffff;stop-opacity:0.15686275"
         offset="0.96892834" />
      <stop
         id="a257stop4062"
         style="stop-color:#ffffff;stop-opacity:0.39215687"
         offset="1" />
    </linearGradient>
    <linearGradient
       id="a257linearGradient3912">
      <stop
         id="a257stop3914"
         style="stop-color:#787878;stop-opacity:1"
         offset="0" />
      <stop
         id="a257stop3916"
         style="stop-color:#bebebe;stop-opacity:1"
         offset="0.35046947" />
      <stop
         id="a257stop3918"
         style="stop-color:#c8c8c8;stop-opacity:1"
         offset="0.49417919" />
      <stop
         id="a257stop3920"
         style="stop-color:#e6e6e6;stop-opacity:1"
         offset="0.58907253" />
      <stop
         id="a257stop3922"
         style="stop-color:#8c8c8c;stop-opacity:1"
         offset="1" />
    </linearGradient>
    <linearGradient
       id="a257linearGradient3342">
      <stop
         id="a257stop3344"
         style="stop-color:#ffffff;stop-opacity:0"
         offset="0" />
      <stop
         id="a257stop3346"
         style="stop-color:#ffffff;stop-opacity:1"
         offset="1" />
    </linearGradient>
    <linearGradient
       id="a257linearGradient10691-1">
      <stop
         id="a257stop10693-3"
         style="stop-color:#000000;stop-opacity:1"
         offset="0" />
      <stop
         id="a257stop10695-1"
         style="stop-color:#000000;stop-opacity:0"
         offset="1" />
    </linearGradient>
    <linearGradient
       x1="15.573899"
       y1="46.971004"
       x2="23.578077"
       y2="46.971004"
       id="a257linearGradient2993"
       xlink:href="#a257linearGradient3342"
       gradientUnits="userSpaceOnUse"
       gradientTransform="matrix(1.1176471,0,0,1,-2.3519696,-3.4710029)"
       spreadMethod="reflect" />
    <radialGradient
       cx="6.702713"
       cy="73.615715"
       r="7.228416"
       fx="6.702713"
       fy="73.615715"
       id="a257radialGradient3001"
       xlink:href="#a257linearGradient10691-1"
       gradientUnits="userSpaceOnUse"
       gradientTransform="matrix(1.9368007,0,0,0.4150287,11.018182,13.447365)" />
    <linearGradient
       x1="361.10583"
       y1="87.050117"
       x2="361.10583"
       y2="94.396416"
       id="a257linearGradient3832-9"
       xlink:href="#a257linearGradient3912"
       gradientUnits="userSpaceOnUse"
       gradientTransform="matrix(0.9964089,0,0,1.0001438,-332.882,-50.012717)" />
    <linearGradient
       xlink:href="#a257linearGradient3880"
       id="a257linearGradient3887"
       x1="10"
       y1="-3"
       x2="20"
       y2="12"
       gradientUnits="userSpaceOnUse"
       gradientTransform="matrix(1.1500002,0,0,1.1666666,-0.15000354,13.333333)" />
    <linearGradient
       id="a257linearGradient3880">
      <stop
         style="stop-color:#ffffff;stop-opacity:1;"
         offset="0"
         id="a257stop3883" />
      <stop
         style="stop-color:#ffffff;stop-opacity:0;"
         offset="1"
         id="a257stop3885" />
    </linearGradient>
    <linearGradient
       id="a257outerBackgroundGradient-5-0">
      <stop
         style="stop-color:#261e2b;stop-opacity:1;"
         offset="0"
         id="a257stop3864-8-6-4" />
      <stop
         style="stop-color:#352f39;stop-opacity:1;"
         offset="1"
         id="a257stop3866-9-1-86" />
    </linearGradient>
    <linearGradient
       y2="2"
       x2="15"
       y1="24.618645"
       x1="15"
       gradientTransform="matrix(1.0500002,0,0,1.2173913,1.949997,15.73913)"
       gradientUnits="userSpaceOnUse"
       id="a257linearGradient4020"
       xlink:href="#a257outerBackgroundGradient-5-0" />
    <linearGradient
       id="a257linearGradient3924-1">
      <stop
         offset="0"
         style="stop-color:#ffffff;stop-opacity:1"
         id="a257stop3926-3" />
      <stop
         offset="0.06316455"
         style="stop-color:#ffffff;stop-opacity:0.23529412"
         id="a257stop3928-91" />
      <stop
         offset="0.95056331"
         style="stop-color:#ffffff;stop-opacity:0.15686275"
         id="a257stop3930-6" />
      <stop
         offset="1"
         style="stop-color:#ffffff;stop-opacity:0.39215687"
         id="a257stop3932-6" />
    </linearGradient>
    <linearGradient
       xlink:href="#a257linearGradient3924-1"
       id="a257linearGradient3916"
       gradientUnits="userSpaceOnUse"
       gradientTransform="matrix(1.2162163,0,0,0.83783786,-5.1891986,-0.10809896)"
       x1="23.99999"
       y1="4.999989"
       x2="23.99999"
       y2="43" />
    <linearGradient
       xlink:href="#a257linearGradient3924-1-0"
       id="a257linearGradient3916-5"
       gradientUnits="userSpaceOnUse"
       gradientTransform="matrix(1.2162163,0,0,0.83783786,-5.1891986,-0.10809896)"
       x1="23.99999"
       y1="4.999989"
       x2="23.99999"
       y2="43" />
    <linearGradient
       id="a257linearGradient3924-1-0">
      <stop
         offset="0"
         style="stop-color:#ffffff;stop-opacity:1"
         id="a257stop3926-3-7" />
      <stop
         offset="0.06316455"
         style="stop-color:#ffffff;stop-opacity:0.23529412"
         id="a257stop3928-91-0" />
      <stop
         offset="0.95056331"
         style="stop-color:#ffffff;stop-opacity:0.15686275"
         id="a257stop3930-6-2" />
      <stop
         offset="1"
         style="stop-color:#ffffff;stop-opacity:0.39215687"
         id="a257stop3932-6-0" />
    </linearGradient>
    <linearGradient
       xlink:href="#a257linearGradient4054"
       id="a257linearGradient4052"
       gradientUnits="userSpaceOnUse"
       gradientTransform="matrix(1.2162163,0,0,0.83783786,-5.1891986,-0.10809896)"
       x1="23.386202"
       y1="42.776379"
       x2="23.386202"
       y2="51.377102" />
    <linearGradient
       xlink:href="#a257linearGradient3924-1-0"
       id="a257linearGradient4066"
       gradientUnits="userSpaceOnUse"
       gradientTransform="matrix(1.1554773,0,0,0.83783786,-3.5186976,-0.10809896)"
       x1="23.99999"
       y1="4.999989"
       x2="23.99999"
       y2="43" />
    <linearGradient
       xlink:href="#a257linearGradient4054"
       id="a257linearGradient4073"
       gradientUnits="userSpaceOnUse"
       gradientTransform="matrix(1.2162163,0,0,0.83783786,-5.1891986,-0.10809896)"
       x1="24.809988"
       y1="51.419304"
       x2="24.809988"
       y2="42.989254" />
  </defs>
  <path
     d="m 38,44 c 0,1.656855 -6.268014,3 -14.000001,3 C 16.268013,47 10,45.656855 10,44 10,42.343146 16.268013,41 23.999999,41 31.731986,41 38,42.343146 38,44 l 0,0 z"
     id="a257path2589"
     style="opacity:0.3;fill:url(#a257radialGradient3001);fill-opacity:1;fill-rule:nonzero;stroke:none;stroke-width:0.80000001;marker:none;visibility:visible;display:inline;overflow:visible" />
  <path
     d="m 17.859462,36.249806 c 0,0 0.141772,4.25777 -0.565344,5.250194 -0.707116,0.992424 -2.114148,1.004 -2.114148,1.004 -0.902888,0.104262 -0.910357,1.996 0,1.996 l 17.63999,0 c 0.910357,0 0.903077,-1.893068 0,-1.996 0,0 -1.406971,-0.01158 -2.114077,-1.004 -0.707106,-0.992422 -0.565415,-5.250194 -0.565415,-5.250194 l -12.281006,0 z"
     id="a257rect1789"
     style="color:#000000;fill:url(#a257linearGradient3832-9);fill-opacity:1;fill-rule:nonzero;stroke:none;stroke-width:0.99827462000000000;stroke-linecap:round;stroke-linejoin:round;stroke-miterlimit:4;stroke-opacity:1;stroke-dasharray:none;stroke-dashoffset:0.50000001000000005;marker:none;visibility:visible;display:inline;overflow:visible;enable-background:new" />
  <path
     d="m 17.859462,36.249806 c 0,0 0.141772,4.25777 -0.565344,5.250194 -0.707116,0.992424 -2.114148,1.004 -2.114148,1.004 -0.902888,0.104262 -0.910357,1.996 0,1.996 l 17.63999,0 c 0.910357,0 0.903077,-1.893068 0,-1.996 0,0 -1.406971,-0.01158 -2.114077,-1.004 -0.707106,-0.992422 -0.565415,-5.250194 -0.565415,-5.250194 l -12.281006,0 z"
     id="a257rect1789-3"
     style="color:#000000;fill:none;fill-opacity:1;fill-rule:nonzero;stroke:#000000;stroke-width:0.99827462000000000;stroke-linecap:round;stroke-linejoin:round;stroke-miterlimit:4;stroke-opacity:1;stroke-dasharray:none;stroke-dashoffset:0.50000001000000005;marker:none;visibility:visible;display:inline;overflow:visible;enable-background:new;opacity:0.4" />
  <path
     style="color:#000000;fill:none;stroke:url(#a257linearGradient4073);stroke-width:0.99999994000000003;stroke-linecap:round;stroke-linejoin:round;stroke-miterlimit:4;stroke-opacity:1;stroke-dasharray:none;stroke-dashoffset:0;marker:none;visibility:visible;display:inline;overflow:visible;enable-background:accumulate"
     d="m 18.90625,33.28125 c 0,0 0.0029,4.605435 -0.03125,5.28125 -0.03123,0.618032 -0.08833,1.273442 -0.1875,1.875 -0.09917,0.601558 -0.174655,1.111917 -0.5625,1.65625 -0.855934,1.201288 -1.982095,1.34413 -2.5,1.375 l 16.75,0 c -0.517906,-0.03087 -1.644071,-0.173707 -2.5,-1.375 -0.38784,-0.544333 -0.463329,-1.054693 -0.5625,-1.65625 -0.09917,-0.601557 -0.156272,-1.256968 -0.1875,-1.875 -0.03415,-0.675815 -0.03125,-5.28125 -0.03125,-5.28125 z"
     id="a257path4050" />
  <rect
     width="46.999763"
     height="32.99976"
     rx="1.0444448"
     ry="1"
     x="0.5001179"
     y="3.5001206"
     id="a257rect2722"
     style="fill:#1a1a1a;fill-opacity:1;stroke:#000000;stroke-width:1.00023937;stroke-linecap:round;stroke-linejoin:round;stroke-miterlimit:4;stroke-opacity:1;stroke-dasharray:none;stroke-dashoffset:0.50000001" />
  <path
     style="fill:url(#a257linearGradient4020);fill-opacity:1;stroke:none;display:inline"
     d="M 3.0000002,6 45,6 45,34 3.0000002,34 z"
     id="a257rect2722-0" />
  <path
     style="opacity:0.2;fill:#000000;fill-opacity:1;stroke:none;display:inline"
     d="m 3.0000001,6 0,28 L 45,34 45,6 z M 4,7 44,7 44,33 3.9999999,33 z"
     id="a257path3942" />
  <rect
     width="44.999996"
     height="31.000002"
     rx="0"
     ry="0"
     x="1.5000001"
     y="4.5"
     id="a257rect6741"
     style="opacity:0.2;fill:none;stroke:url(#a257linearGradient3916);stroke-width:0.99999994;stroke-linecap:round;stroke-linejoin:round;stroke-miterlimit:4;stroke-opacity:1;stroke-dasharray:none;stroke-dashoffset:0" />
  <path
     style="opacity:0.2;fill:url(#a257linearGradient3887);fill-opacity:1;stroke:none;display:inline"
     d="M 1,4 1,25 47,9.6874999 47,4 z"
     id="a257rect3872" />
</g><defs><clipPath id="k259"><rect x="5" y="13" width="118" height="81" rx="1.5"/></clipPath></defs><g clip-path="url(#k259)"><rect x="5" y="13" width="118" height="81" fill="#fafafa"/><rect x="5" y="13" width="118" height="81" fill="#64baff"/><rect x="5" y="53" width="118" height="41" fill="#cd9ef7" opacity="0.6"/><defs><linearGradient id="f253" x1="0" y1="0" x2="0" y2="1"><stop offset="0" stop-color="#ffffff"/><stop offset="1" stop-color="#f0f0f0"/></linearGradient><clipPath id="c254"><path d="M19 20 H79 Q84 20 84 25 V37 Q84 42 79 42 H19 Q14 42 14 37 V25 Q14 20 19 20 Z"/></clipPath><linearGradient id="h255" x1="0" y1="0" x2="0" y2="1"><stop offset="0" stop-color="#fff" stop-opacity="0.8"/><stop offset="0.040" stop-color="#fff" stop-opacity="0.24"/><stop offset="0.960" stop-color="#fff" stop-opacity="0.12"/><stop offset="1" stop-color="#fff" stop-opacity="0.3"/></linearGradient><radialGradient id="g256" cx="0.5" cy="0" r="0.75" gradientTransform="matrix(1.3,0,0,0.75,-0.15,0)"><stop offset="0" stop-color="#fff" stop-opacity="0.05"/><stop offset="1" stop-color="#fff" stop-opacity="0"/></radialGradient></defs><path d="M19 20 H79 Q84 20 84 25 V37 Q84 42 79 42 H19 Q14 42 14 37 V25 Q14 20 19 20 Z" fill="url(#f253)"/><path d="M19 20 H79 Q84 20 84 25 V37 Q84 42 79 42 H19 Q14 42 14 37 V25 Q14 20 19 20 Z" fill="url(#g256)"/><path d="M19 20 H79 Q84 20 84 25 V37 Q84 42 79 42 H19 Q14 42 14 37 V25 Q14 20 19 20 Z" fill="none" stroke="url(#h255)" stroke-width="5.33333" clip-path="url(#c254)"/><path d="M19 20 H79 Q84 20 84 25 V37 Q84 42 79 42 H19 Q14 42 14 37 V25 Q14 20 19 20 Z" fill="none" stroke="#000" stroke-opacity="0.28" stroke-width="2.66667" stroke-linejoin="round"/><rect x="19" y="25" width="12" height="12" rx="3" fill="#f37329"/><rect x="36" y="26" width="36" height="4" rx="2" fill="#555761"/><rect x="36" y="33" width="24" height="3" rx="1.5" fill="#abacae"/><defs><linearGradient id="gl258" x1="0" y1="0" x2="1" y2="1"><stop offset="0" stop-color="#fff" stop-opacity="0.22"/><stop offset="0.5" stop-color="#fff" stop-opacity="0"/></linearGradient></defs><rect x="5" y="13" width="118" height="81" fill="url(#gl258)"/></g><g transform="translate(0 4.0)" opacity="0.15"><defs><linearGradient id="f260" x1="0" y1="0" x2="0" y2="1"><stop offset="0" stop-color="#4a4f5a"/><stop offset="1" stop-color="#2a2d34"/></linearGradient><clipPath id="c261"><path d="M93.04 58 H110.96 Q116 58 116 63.04 V108.96 Q116 114 110.96 114 H93.04 Q88 114 88 108.96 V63.04 Q88 58 93.04 58 Z"/></clipPath><linearGradient id="h262" x1="0" y1="0" x2="0" y2="1"><stop offset="0" stop-color="#fff" stop-opacity="0.8"/><stop offset="0.040" stop-color="#fff" stop-opacity="0.24"/><stop offset="0.960" stop-color="#fff" stop-opacity="0.12"/><stop offset="1" stop-color="#fff" stop-opacity="0.3"/></linearGradient><radialGradient id="g263" cx="0.5" cy="0" r="0.75" gradientTransform="matrix(1.3,0,0,0.75,-0.15,0)"><stop offset="0" stop-color="#fff" stop-opacity="0.05"/><stop offset="1" stop-color="#fff" stop-opacity="0"/></radialGradient></defs><path d="M93.04 58 H110.96 Q116 58 116 63.04 V108.96 Q116 114 110.96 114 H93.04 Q88 114 88 108.96 V63.04 Q88 58 93.04 58 Z" fill="#000"/><path d="M93.04 58 H110.96 Q116 58 116 63.04 V108.96 Q116 114 110.96 114 H93.04 Q88 114 88 108.96 V63.04 Q88 58 93.04 58 Z" fill="#000"/><path d="M93.04 58 H110.96 Q116 58 116 63.04 V108.96 Q116 114 110.96 114 H93.04 Q88 114 88 108.96 V63.04 Q88 58 93.04 58 Z" fill="none" stroke="#000" stroke-width="5.33333" clip-path="url(#c261)"/><path d="M93.04 58 H110.96 Q116 58 116 63.04 V108.96 Q116 114 110.96 114 H93.04 Q88 114 88 108.96 V63.04 Q88 58 93.04 58 Z" fill="none" stroke="#000" stroke-opacity="0.40" stroke-width="2.66667" stroke-linejoin="round"/><defs><clipPath id="k264"><rect x="90.5" y="60.5" width="23" height="51" rx="3.9200000000000004"/></clipPath></defs><g clip-path="url(#k264)"><rect x="88" y="58" width="28" height="56" fill="#000"/><rect x="88" y="58" width="28" height="56" fill="#000"/></g></g><defs><linearGradient id="f260" x1="0" y1="0" x2="0" y2="1"><stop offset="0" stop-color="#4a4f5a"/><stop offset="1" stop-color="#2a2d34"/></linearGradient><clipPath id="c261"><path d="M93.04 58 H110.96 Q116 58 116 63.04 V108.96 Q116 114 110.96 114 H93.04 Q88 114 88 108.96 V63.04 Q88 58 93.04 58 Z"/></clipPath><linearGradient id="h262" x1="0" y1="0" x2="0" y2="1"><stop offset="0" stop-color="#fff" stop-opacity="0.8"/><stop offset="0.040" stop-color="#fff" stop-opacity="0.24"/><stop offset="0.960" stop-color="#fff" stop-opacity="0.12"/><stop offset="1" stop-color="#fff" stop-opacity="0.3"/></linearGradient><radialGradient id="g263" cx="0.5" cy="0" r="0.75" gradientTransform="matrix(1.3,0,0,0.75,-0.15,0)"><stop offset="0" stop-color="#fff" stop-opacity="0.05"/><stop offset="1" stop-color="#fff" stop-opacity="0"/></radialGradient></defs><path d="M93.04 58 H110.96 Q116 58 116 63.04 V108.96 Q116 114 110.96 114 H93.04 Q88 114 88 108.96 V63.04 Q88 58 93.04 58 Z" fill="url(#f260)"/><path d="M93.04 58 H110.96 Q116 58 116 63.04 V108.96 Q116 114 110.96 114 H93.04 Q88 114 88 108.96 V63.04 Q88 58 93.04 58 Z" fill="url(#g263)"/><path d="M93.04 58 H110.96 Q116 58 116 63.04 V108.96 Q116 114 110.96 114 H93.04 Q88 114 88 108.96 V63.04 Q88 58 93.04 58 Z" fill="none" stroke="url(#h262)" stroke-width="5.33333" clip-path="url(#c261)"/><path d="M93.04 58 H110.96 Q116 58 116 63.04 V108.96 Q116 114 110.96 114 H93.04 Q88 114 88 108.96 V63.04 Q88 58 93.04 58 Z" fill="none" stroke="#0e0f12" stroke-opacity="0.40" stroke-width="2.66667" stroke-linejoin="round"/><defs><clipPath id="k264"><rect x="90.5" y="60.5" width="23" height="51" rx="3.9200000000000004"/></clipPath></defs><g clip-path="url(#k264)"><rect x="88" y="58" width="28" height="56" fill="#a56de2"/><rect x="88" y="58" width="28" height="56" fill="#3a3d45"/></g></g></svg>
