<svg xmlns="http://www.w3.org/2000/svg" xmlns:xlink="http://www.w3.org/1999/xlink" xmlns:svg="http://www.w3.org/2000/svg" viewBox="0 0 128 128"><g transform="translate(64 116) scale(0.92) translate(-64 -116)"><g transform="translate(0 0) scale(1.0)">
  
  <defs
     id="a281defs4571">
    <linearGradient
       id="a281linearGradient3912">
      <stop
         offset="0"
         style="stop-color:#787878;stop-opacity:1"
         id="a281stop3914" />
      <stop
         offset="0.35046947"
         style="stop-color:#b4b4b4;stop-opacity:1"
         id="a281stop3916" />
      <stop
         offset="0.49417919"
         style="stop-color:#c8c8c8;stop-opacity:1"
         id="a281stop3918" />
      <stop
         offset="0.58907253"
         style="stop-color:#e6e6e6;stop-opacity:1"
         id="a281stop3920" />
      <stop
         offset="1"
         style="stop-color:#8c8c8c;stop-opacity:1"
         id="a281stop3922" />
    </linearGradient>
    <linearGradient
       id="a281linearGradient6592-2-7">
      <stop
         offset="0"
         style="stop-color:#ffffff;stop-opacity:0.27450982"
         id="a281stop6594-0-2" />
      <stop
         offset="1"
         style="stop-color:#ffffff;stop-opacity:0"
         id="a281stop6596-2-5" />
    </linearGradient>
    <linearGradient
       id="a281linearGradient10691-1">
      <stop
         offset="0"
         style="stop-color:#000000;stop-opacity:1"
         id="a281stop10693-3" />
      <stop
         offset="1"
         style="stop-color:#000000;stop-opacity:0"
         id="a281stop10695-1" />
    </linearGradient>
    <linearGradient
       gradientTransform="matrix(2.6746618,0,0,2.5459707,-893.97886,-122.09114)"
       gradientUnits="userSpaceOnUse"
       xlink:href="#a281linearGradient3912"
       id="a281linearGradient3221"
       y2="94.396416"
       x2="361.10583"
       y1="87.050117"
       x1="361.10583" />
    <radialGradient
       gradientTransform="matrix(5.2570306,0,0,1.1067431,28.763637,34.526312)"
       gradientUnits="userSpaceOnUse"
       xlink:href="#a281linearGradient10691-1"
       id="a281radialGradient3226"
       fy="73.615715"
       fx="6.702713"
       r="7.228416"
       cy="73.615715"
       cx="6.702713" />
    <linearGradient
       id="a281linearGradient4084">
      <stop
         offset="0"
         style="stop-color:#ffffff;stop-opacity:1"
         id="a281stop4086" />
      <stop
         offset="0.01596775"
         style="stop-color:#ffffff;stop-opacity:0.23529412"
         id="a281stop4088" />
      <stop
         offset="0.99257565"
         style="stop-color:#ffffff;stop-opacity:0.15686275"
         id="a281stop4090" />
      <stop
         offset="1"
         style="stop-color:#ffffff;stop-opacity:0.39215687"
         id="a281stop4092" />
    </linearGradient>
    <linearGradient
       id="a281outerBackgroundGradient-5-0">
      <stop
         id="a281stop3864-8-6-4"
         offset="0"
         style="stop-color:#261e2b;stop-opacity:1;" />
      <stop
         id="a281stop3866-9-1-86"
         offset="1"
         style="stop-color:#352f39;stop-opacity:1;" />
    </linearGradient>
    <linearGradient
       xlink:href="#a281linearGradient6592-2-7"
       id="a281linearGradient3141"
       gradientUnits="userSpaceOnUse"
       gradientTransform="matrix(3.1000007,0,0,3.136008,-1.1000124,35.088071)"
       x1="10"
       y1="-3"
       x2="20"
       y2="12" />
    <linearGradient
       xlink:href="#a281linearGradient4084"
       id="a281linearGradient3144"
       gradientUnits="userSpaceOnUse"
       gradientTransform="matrix(3.3243244,0,0,2.3243242,-15.783808,-2.2837566)"
       x1="23.99999"
       y1="5.7531762"
       x2="23.99999"
       y2="42.121033" />
    <linearGradient
       xlink:href="#a281outerBackgroundGradient-5-0"
       id="a281linearGradient3148"
       gradientUnits="userSpaceOnUse"
       gradientTransform="matrix(2.8500006,0,0,3.2608694,4.150005,42.086958)"
       x1="15"
       y1="24.618645"
       x2="15"
       y2="2" />
    <linearGradient
       id="a281linearGradient4054-5">
      <stop
         offset="0"
         style="stop-color:#ffffff;stop-opacity:1"
         id="a281stop4056-0" />
      <stop
         offset="0.01719457"
         style="stop-color:#ffffff;stop-opacity:0.23529412"
         id="a281stop4058-4" />
      <stop
         offset="1"
         style="stop-color:#ffffff;stop-opacity:0.15686275"
         id="a281stop4060-4" />
      <stop
         offset="1"
         style="stop-color:#ffffff;stop-opacity:0.39215687"
         id="a281stop4062-0" />
    </linearGradient>
    <linearGradient
       xlink:href="#a281linearGradient4054-5"
       id="a281linearGradient3152-7"
       gradientUnits="userSpaceOnUse"
       gradientTransform="matrix(1.2162163,0,0,0.83783786,2.6663586,14.977385)"
       x1="47.546879"
       y1="121.84093"
       x2="47.546879"
       y2="99.079079" />
  </defs>
  <path
     style="opacity:0.3;fill:url(#a281radialGradient3226);fill-opacity:1;fill-rule:nonzero;stroke:none;stroke-width:0.80000001;marker:none;visibility:visible;display:inline;overflow:visible"
     id="a281path2589"
     d="m 102,116 c 0,4.41828 -17.013179,8 -38.000002,8 C 43.013178,124 26,120.41828 26,116 26,111.58172 43.013178,108 63.999998,108 84.986821,108 102,111.58172 102,116 l 0,0 z" />
  <path
     style="fill:url(#a281linearGradient3221);fill-opacity:1;fill-rule:nonzero;stroke:none;stroke-width:0.99827462;stroke-linecap:round;stroke-linejoin:round;stroke-miterlimit:4;stroke-opacity:1;stroke-dasharray:none;stroke-dashoffset:0.50000001;marker:none;visibility:visible;display:inline;overflow:visible;enable-background:new"
     id="a281rect1789"
     d="m 47.5,97.499139 c 0,0 0.397503,10.838601 -1.50061,13.364911 -1.898112,2.52633 -5.675011,4.13662 -5.675011,4.13662 -2.423623,0.2654 -2.443672,3.5002 0,3.5002 l 47.351051,0 c 2.443672,0 2.424131,-3.23819 0,-3.5002 0,0 -3.776735,-1.6103 -5.674819,-4.13662 C 80.102525,108.33775 80.5,97.499139 80.5,97.499139 l -32.983056,0 -0.01694,0 z" />
  <path
     style="display:inline;overflow:visible;visibility:visible;fill:none;fill-opacity:1;fill-rule:nonzero;stroke:#000000;stroke-width:0.99827462;stroke-linecap:round;stroke-linejoin:round;stroke-miterlimit:4;stroke-dasharray:none;stroke-dashoffset:0.5;stroke-opacity:1;marker:none;enable-background:new;color:#000000;clip-rule:nonzero;opacity:0.4;isolation:auto;mix-blend-mode:normal;color-interpolation:sRGB;color-interpolation-filters:linearRGB;solid-color:#000000;solid-opacity:1;filter-blend-mode:normal;filter-gaussianBlur-deviation:0;color-rendering:auto;image-rendering:auto;shape-rendering:auto;text-rendering:auto"
     id="a281rect1789-8"
     d="m 47.5,97.499139 c 0,0 0.397503,10.838601 -1.50061,13.364911 -1.898112,2.52633 -5.675011,4.13662 -5.675011,4.13662 -2.423623,0.2654 -2.443672,3.5002 0,3.5002 l 47.351051,0 c 2.443672,0 2.424131,-3.23819 0,-3.5002 0,0 -3.776735,-1.6103 -5.674819,-4.13662 C 80.102525,108.33775 80.5,97.499139 80.5,97.499139 l -32.983056,0 -0.01694,0 z" />
  <rect
     style="fill:#1a1a1a;fill-opacity:1;stroke:#000000;stroke-width:1.00023937;stroke-linecap:round;stroke-linejoin:round;stroke-miterlimit:4;stroke-dasharray:none;stroke-dashoffset:0.5;stroke-opacity:1"
     id="a281rect2722-7"
     y="9.500124"
     x="1.5001197"
     ry="2.5"
     rx="2.5"
     height="87.999756"
     width="124.99976" />
  <path
     id="a281rect2722-0"
     d="m 7.000002,16.000002 113.999998,0 0,75 -113.999998,0 z"
     style="display:inline;fill:url(#a281linearGradient3148);fill-opacity:1;stroke:none" />
  <rect
     style="opacity:0.2;fill:none;stroke:url(#a281linearGradient3144);stroke-width:0.99999994;stroke-linecap:round;stroke-linejoin:round;stroke-miterlimit:4;stroke-dasharray:none;stroke-dashoffset:0;stroke-opacity:1"
     id="a281rect6741"
     y="10.500002"
     x="2.5000052"
     ry="1.5"
     rx="1.5"
     height="86"
     width="122.99999" />
  <path
     id="a281rect2722-0-3"
     d="M 7 16 L 7 91 L 121 91 L 121 16 L 7 16 z M 8 17 L 120 17 L 120 90 L 8 90 L 8 17 z "
     style="display:inline;fill:#000000;fill-opacity:1;stroke:none;color:#000000;clip-rule:nonzero;overflow:visible;visibility:visible;opacity:0.2;isolation:auto;mix-blend-mode:normal;color-interpolation:sRGB;color-interpolation-filters:linearRGB;solid-color:#000000;solid-opacity:1;fill-rule:nonzero;stroke-width:1;stroke-linecap:butt;stroke-linejoin:miter;stroke-miterlimit:4;stroke-dasharray:none;stroke-dashoffset:0;stroke-opacity:1;filter-blend-mode:normal;filter-gaussianBlur-deviation:0;color-rendering:auto;image-rendering:auto;shape-rendering:auto;text-rendering:auto;enable-background:accumulate" />
  <path
     id="a281rect3872"
     d="m 2.0000053,10.000002 0,56.448151 124.0000047,-41.160107 0,-15.288044 z"
     style="display:inline;opacity:0.2;fill:url(#a281linearGradient3141);fill-opacity:1;stroke:none" />
  <path
     id="a281path4419"
     d="m 48.478516,98.486328 c 0.02065,0.733663 0.08406,2.260412 -0.03125,4.792972 -0.06997,1.53666 -0.199201,3.15889 -0.439454,4.59375 -0.240251,1.43485 -0.530844,2.66645 -1.21875,3.58203 -2.154724,2.86787 -6.078125,4.45312 -6.078124,4.45312 -0.08905,0.0376 -0.183159,0.062 -0.279297,0.0723 -0.78107,0.0855 -0.944221,0.50444 -0.945313,0.87109 -5.46e-4,0.18333 0.05961,0.3357 0.167969,0.44532 0.108361,0.1096 0.276609,0.21679 0.669922,0.21679 l 47.351562,0 c 0.393085,0 0.561397,-0.10695 0.669922,-0.21679 0.108525,-0.10986 0.170455,-0.26169 0.169922,-0.44532 -0.0011,-0.36726 -0.164558,-0.7867 -0.945313,-0.87109 -0.0968,-0.0101 -0.191578,-0.0344 -0.28125,-0.0723 0,0 -3.923422,-1.58525 -6.078124,-4.45312 -0.687899,-0.91557 -0.9785,-2.14718 -1.21875,-3.58203 -0.240252,-1.43485 -0.369484,-3.05709 -0.439454,-4.59375 -0.115315,-2.53256 -0.0519,-4.059308 -0.03125,-4.792972"
     style="color:#000000;clip-rule:nonzero;display:inline;overflow:visible;visibility:visible;opacity:0.6;isolation:auto;mix-blend-mode:normal;color-interpolation:sRGB;color-interpolation-filters:linearRGB;solid-color:#000000;solid-opacity:1;fill:none;fill-opacity:1;fill-rule:nonzero;stroke:url(#a281linearGradient3152-7);stroke-width:1;stroke-linecap:round;stroke-linejoin:round;stroke-miterlimit:4;stroke-dasharray:none;stroke-dashoffset:0;stroke-opacity:1;marker:none;color-rendering:auto;image-rendering:auto;shape-rendering:auto;text-rendering:auto;enable-background:accumulate" />
</g><defs><clipPath id="k283"><rect x="5" y="13" width="118" height="81" rx="1.5"/></clipPath></defs><g clip-path="url(#k283)"><rect x="5" y="13" width="118" height="81" fill="#fafafa"/><rect x="5" y="13" width="118" height="81" fill="#64baff"/><rect x="5" y="53" width="118" height="41" fill="#cd9ef7" opacity="0.6"/><defs><linearGradient id="f277" x1="0" y1="0" x2="0" y2="1"><stop offset="0" stop-color="#ffffff"/><stop offset="1" stop-color="#f0f0f0"/></linearGradient><clipPath id="c278"><path d="M19 20 H79 Q84 20 84 25 V37 Q84 42 79 42 H19 Q14 42 14 37 V25 Q14 20 19 20 Z"/></clipPath><linearGradient id="h279" x1="0" y1="0" x2="0" y2="1"><stop offset="0" stop-color="#fff" stop-opacity="0.8"/><stop offset="0.015" stop-color="#fff" stop-opacity="0.24"/><stop offset="0.985" stop-color="#fff" stop-opacity="0.12"/><stop offset="1" stop-color="#fff" stop-opacity="0.3"/></linearGradient><radialGradient id="g280" cx="0.5" cy="0" r="0.75" gradientTransform="matrix(1.3,0,0,0.75,-0.15,0)"><stop offset="0" stop-color="#fff" stop-opacity="0.05"/><stop offset="1" stop-color="#fff" stop-opacity="0"/></radialGradient></defs><path d="M19 20 H79 Q84 20 84 25 V37 Q84 42 79 42 H19 Q14 42 14 37 V25 Q14 20 19 20 Z" fill="url(#f277)"/><path d="M19 20 H79 Q84 20 84 25 V37 Q84 42 79 42 H19 Q14 42 14 37 V25 Q14 20 19 20 Z" fill="url(#g280)"/><path d="M19 20 H79 Q84 20 84 25 V37 Q84 42 79 42 H19 Q14 42 14 37 V25 Q14 20 19 20 Z" fill="none" stroke="url(#h279)" stroke-width="2" clip-path="url(#c278)"/><path d="M19 20 H79 Q84 20 84 25 V37 Q84 42 79 42 H19 Q14 42 14 37 V25 Q14 20 19 20 Z" fill="none" stroke="#000" stroke-opacity="0.28" stroke-width="1" stroke-linejoin="round"/><rect x="19" y="25" width="12" height="12" rx="3" fill="#f37329"/><rect x="36" y="26" width="36" height="4" rx="2" fill="#555761"/><rect x="36" y="33" width="24" height="3" rx="1.5" fill="#abacae"/><defs><linearGradient id="gl282" x1="0" y1="0" x2="1" y2="1"><stop offset="0" stop-color="#fff" stop-opacity="0.22"/><stop offset="0.5" stop-color="#fff" stop-opacity="0"/></linearGradient></defs><rect x="5" y="13" width="118" height="81" fill="url(#gl282)"/></g><g transform="translate(0 1.5)" opacity="0.15"><defs><linearGradient id="f284" x1="0" y1="0" x2="0" y2="1"><stop offset="0" stop-color="#4a4f5a"/><stop offset="1" stop-color="#2a2d34"/></linearGradient><clipPath id="c285"><path d="M93.04 58 H110.96 Q116 58 116 63.04 V108.96 Q116 114 110.96 114 H93.04 Q88 114 88 108.96 V63.04 Q88 58 93.04 58 Z"/></clipPath><linearGradient id="h286" x1="0" y1="0" x2="0" y2="1"><stop offset="0" stop-color="#fff" stop-opacity="0.8"/><stop offset="0.015" stop-color="#fff" stop-opacity="0.24"/><stop offset="0.985" stop-color="#fff" stop-opacity="0.12"/><stop offset="1" stop-color="#fff" stop-opacity="0.3"/></linearGradient><radialGradient id="g287" cx="0.5" cy="0" r="0.75" gradientTransform="matrix(1.3,0,0,0.75,-0.15,0)"><stop offset="0" stop-color="#fff" stop-opacity="0.05"/><stop offset="1" stop-color="#fff" stop-opacity="0"/></radialGradient></defs><path d="M93.04 58 H110.96 Q116 58 116 63.04 V108.96 Q116 114 110.96 114 H93.04 Q88 114 88 108.96 V63.04 Q88 58 93.04 58 Z" fill="#000"/><path d="M93.04 58 H110.96 Q116 58 116 63.04 V108.96 Q116 114 110.96 114 H93.04 Q88 114 88 108.96 V63.04 Q88 58 93.04 58 Z" fill="#000"/><path d="M93.04 58 H110.96 Q116 58 116 63.04 V108.96 Q116 114 110.96 114 H93.04 Q88 114 88 108.96 V63.04 Q88 58 93.04 58 Z" fill="none" stroke="#000" stroke-width="2" clip-path="url(#c285)"/><path d="M93.04 58 H110.96 Q116 58 116 63.04 V108.96 Q116 114 110.96 114 H93.04 Q88 114 88 108.96 V63.04 Q88 58 93.04 58 Z" fill="none" stroke="#000" stroke-opacity="0.40" stroke-width="1" stroke-linejoin="round"/><defs><clipPath id="k288"><rect x="90.5" y="60.5" width="23" height="51" rx="3.9200000000000004"/></clipPath></defs><g clip-path="url(#k288)"><rect x="88" y="58" width="28" height="56" fill="#000"/><rect x="88" y="58" width="28" height="56" fill="#000"/></g></g><defs><linearGradient id="f284" x1="0" y1="0" x2="0" y2="1"><stop offset="0" stop-color="#4a4f5a"/><stop offset="1" stop-color="#2a2d34"/></linearGradient><clipPath id="c285"><path d="M93.04 58 H110.96 Q116 58 116 63.04 V108.96 Q116 114 110.96 114 H93.04 Q88 114 88 108.96 V63.04 Q88 58 93.04 58 Z"/></clipPath><linearGradient id="h286" x1="0" y1="0" x2="0" y2="1"><stop offset="0" stop-color="#fff" stop-opacity="0.8"/><stop offset="0.015" stop-color="#fff" stop-opacity="0.24"/><stop offset="0.985" stop-color="#fff" stop-opacity="0.12"/><stop offset="1" stop-color="#fff" stop-opacity="0.3"/></linearGradient><radialGradient id="g287" cx="0.5" cy="0" r="0.75" gradientTransform="matrix(1.3,0,0,0.75,-0.15,0)"><stop offset="0" stop-color="#fff" stop-opacity="0.05"/><stop offset="1" stop-color="#fff" stop-opacity="0"/></radialGradient></defs><path d="M93.04 58 H110.96 Q116 58 116 63.04 V108.96 Q116 114 110.96 114 H93.04 Q88 114 88 108.96 V63.04 Q88 58 93.04 58 Z" fill="url(#f284)"/><path d="M93.04 58 H110.96 Q116 58 116 63.04 V108.96 Q116 114 110.96 114 H93.04 Q88 114 88 108.96 V63.04 Q88 58 93.04 58 Z" fill="url(#g287)"/><path d="M93.04 58 H110.96 Q116 58 116 63.04 V108.96 Q116 114 110.96 114 H93.04 Q88 114 88 108.96 V63.04 Q88 58 93.04 58 Z" fill="none" stroke="url(#h286)" stroke-width="2" clip-path="url(#c285)"/><path d="M93.04 58 H110.96 Q116 58 116 63.04 V108.96 Q116 114 110.96 114 H93.04 Q88 114 88 108.96 V63.04 Q88 58 93.04 58 Z" fill="none" stroke="#0e0f12" stroke-opacity="0.40" stroke-width="1" stroke-linejoin="round"/><defs><clipPath id="k288"><rect x="90.5" y="60.5" width="23" height="51" rx="3.9200000000000004"/></clipPath></defs><g clip-path="url(#k288)"><rect x="88" y="58" width="28" height="56" fill="#a56de2"/><rect x="88" y="58" width="28" height="56" fill="#3a3d45"/></g></g></svg>
