<svg xmlns="http://www.w3.org/2000/svg" xmlns:xlink="http://www.w3.org/1999/xlink" xmlns:svg="http://www.w3.org/2000/svg" viewBox="0 0 128 128"><defs><radialGradient id="a500" cx="1" cy="0.5" r="1" gradientTransform="matrix(1,0,0,0.5,0,0.25)"><stop offset="0" stop-color="#181818" stop-opacity="1"/><stop offset="1" stop-color="#181818" stop-opacity="0"/></radialGradient><radialGradient id="b501" cx="0" cy="0.5" r="1" gradientTransform="matrix(1,0,0,0.5,0,0.25)"><stop offset="0" stop-color="#181818" stop-opacity="1"/><stop offset="1" stop-color="#181818" stop-opacity="0"/></radialGradient><linearGradient id="m502" x1="0" y1="0" x2="0" y2="1"><stop offset="0" stop-color="#181818" stop-opacity="0"/><stop offset="0.5" stop-color="#181818" stop-opacity="1"/><stop offset="1" stop-color="#181818" stop-opacity="0"/></linearGradient></defs><g opacity="0.36"><rect x="11.6" y="113.0" width="10.4" height="8" fill="url(#a500)"/><rect x="22.0" y="113.0" width="84" height="8" fill="url(#m502)"/><rect x="106.0" y="113.0" width="10.4" height="8" fill="url(#b501)"/></g><defs><linearGradient id="f503" x1="0" y1="0" x2="0" y2="1"><stop offset="0" stop-color="#fafafa"/><stop offset="1" stop-color="#dcdcdc"/></linearGradient><clipPath id="c504"><path d="M38 14 H102 Q110 14 110 22 V106 Q110 114 102 114 H38 Q30 114 30 106 V22 Q30 14 38 14 Z"/></clipPath><linearGradient id="h505" x1="0" y1="0" x2="0" y2="1"><stop offset="0" stop-color="#fff" stop-opacity="0.8"/><stop offset="0.015" stop-color="#fff" stop-opacity="0.24"/><stop offset="0.985" stop-color="#fff" stop-opacity="0.12"/><stop offset="1" stop-color="#fff" stop-opacity="0.3"/></linearGradient><radialGradient id="g506" cx="0.5" cy="0" r="0.75" gradientTransform="matrix(1.3,0,0,0.75,-0.15,0)"><stop offset="0" stop-color="#fff" stop-opacity="0.05"/><stop offset="1" stop-color="#fff" stop-opacity="0"/></radialGradient></defs><path d="M38 14 H102 Q110 14 110 22 V106 Q110 114 102 114 H38 Q30 114 30 106 V22 Q30 14 38 14 Z" fill="url(#f503)"/><path d="M38 14 H102 Q110 14 110 22 V106 Q110 114 102 114 H38 Q30 114 30 106 V22 Q30 14 38 14 Z" fill="url(#g506)"/><path d="M38 14 H102 Q110 14 110 22 V106 Q110 114 102 114 H38 Q30 114 30 106 V22 Q30 14 38 14 Z" fill="none" stroke="url(#h505)" stroke-width="2" clip-path="url(#c504)"/><path d="M38 14 H102 Q110 14 110 22 V106 Q110 114 102 114 H38 Q30 114 30 106 V22 Q30 14 38 14 Z" fill="none" stroke="#555761" stroke-opacity="0.36" stroke-width="1" stroke-linejoin="round"/><path d="M38 14 H102 Q110 14 110 22 V106 Q110 114 102 114 H38 Q30 114 30 106 V22 Q30 14 38 14 Z" fill="none" stroke="#555761" stroke-opacity="0.5" stroke-width="1" stroke-linejoin="round"/><path d="M103.0 18 V110" stroke="#abacae" stroke-width="1" opacity="0.8"/><path d="M105.2 19 V109" stroke="#abacae" stroke-width="1" opacity="0.8"/><path d="M107.4 20 V108" stroke="#abacae" stroke-width="1" opacity="0.8"/><defs><linearGradient id="f507" x1="0" y1="0" x2="0" y2="1"><stop offset="0" stop-color="#fafafa"/><stop offset="1" stop-color="#d4d4d4"/></linearGradient><clipPath id="c508"><path d="M107 24 H111 Q114 24 114 27 V37 Q114 40 111 40 H107 Q104 40 104 37 V27 Q104 24 107 24 Z"/></clipPath><linearGradient id="h509" x1="0" y1="0" x2="0" y2="1"><stop offset="0" stop-color="#fff" stop-opacity="0.8"/><stop offset="0.015" stop-color="#fff" stop-opacity="0.24"/><stop offset="0.985" stop-color="#fff" stop-opacity="0.12"/><stop offset="1" stop-color="#fff" stop-opacity="0.3"/></linearGradient><radialGradient id="g510" cx="0.5" cy="0" r="0.75" gradientTransform="matrix(1.3,0,0,0.75,-0.15,0)"><stop offset="0" stop-color="#fff" stop-opacity="0.05"/><stop offset="1" stop-color="#fff" stop-opacity="0"/></radialGradient></defs><path d="M107 24 H111 Q114 24 114 27 V37 Q114 40 111 40 H107 Q104 40 104 37 V27 Q104 24 107 24 Z" fill="url(#f507)"/><path d="M107 24 H111 Q114 24 114 27 V37 Q114 40 111 40 H107 Q104 40 104 37 V27 Q104 24 107 24 Z" fill="url(#g510)"/><path d="M107 24 H111 Q114 24 114 27 V37 Q114 40 111 40 H107 Q104 40 104 37 V27 Q104 24 107 24 Z" fill="none" stroke="url(#h509)" stroke-width="2" clip-path="url(#c508)"/><path d="M107 24 H111 Q114 24 114 27 V37 Q114 40 111 40 H107 Q104 40 104 37 V27 Q104 24 107 24 Z" fill="none" stroke="#555761" stroke-opacity="0.36" stroke-width="1" stroke-linejoin="round"/><path d="M107 24 H111 Q114 24 114 27 V37 Q114 40 111 40 H107 Q104 40 104 37 V27 Q104 24 107 24 Z" fill="none" stroke="#555761" stroke-opacity="0.55" stroke-width="1" stroke-linejoin="round"/><defs><linearGradient id="f511" x1="0" y1="0" x2="0" y2="1"><stop offset="0" stop-color="#fafafa"/><stop offset="1" stop-color="#d4d4d4"/></linearGradient><clipPath id="c512"><path d="M107 46 H111 Q114 46 114 49 V59 Q114 62 111 62 H107 Q104 62 104 59 V49 Q104 46 107 46 Z"/></clipPath><linearGradient id="h513" x1="0" y1="0" x2="0" y2="1"><stop offset="0" stop-color="#fff" stop-opacity="0.8"/><stop offset="0.015" stop-color="#fff" stop-opacity="0.24"/><stop offset="0.985" stop-color="#fff" stop-opacity="0.12"/><stop offset="1" stop-color="#fff" stop-opacity="0.3"/></linearGradient><radialGradient id="g514" cx="0.5" cy="0" r="0.75" gradientTransform="matrix(1.3,0,0,0.75,-0.15,0)"><stop offset="0" stop-color="#fff" stop-opacity="0.05"/><stop offset="1" stop-color="#fff" stop-opacity="0"/></radialGradient></defs><path d="M107 46 H111 Q114 46 114 49 V59 Q114 62 111 62 H107 Q104 62 104 59 V49 Q104 46 107 46 Z" fill="url(#f511)"/><path d="M107 46 H111 Q114 46 114 49 V59 Q114 62 111 62 H107 Q104 62 104 59 V49 Q104 46 107 46 Z" fill="url(#g514)"/><path d="M107 46 H111 Q114 46 114 49 V59 Q114 62 111 62 H107 Q104 62 104 59 V49 Q104 46 107 46 Z" fill="none" stroke="url(#h513)" stroke-width="2" clip-path="url(#c512)"/><path d="M107 46 H111 Q114 46 114 49 V59 Q114 62 111 62 H107 Q104 62 104 59 V49 Q104 46 107 46 Z" fill="none" stroke="#555761" stroke-opacity="0.36" stroke-width="1" stroke-linejoin="round"/><path d="M107 46 H111 Q114 46 114 49 V59 Q114 62 111 62 H107 Q104 62 104 59 V49 Q104 46 107 46 Z" fill="none" stroke="#555761" stroke-opacity="0.55" stroke-width="1" stroke-linejoin="round"/><defs><linearGradient id="f515" x1="0" y1="0" x2="0" y2="1"><stop offset="0" stop-color="#fafafa"/><stop offset="1" stop-color="#d4d4d4"/></linearGradient><clipPath id="c516"><path d="M107 68 H111 Q114 68 114 71 V81 Q114 84 111 84 H107 Q104 84 104 81 V71 Q104 68 107 68 Z"/></clipPath><linearGradient id="h517" x1="0" y1="0" x2="0" y2="1"><stop offset="0" stop-color="#fff" stop-opacity="0.8"/><stop offset="0.015" stop-color="#fff" stop-opacity="0.24"/><stop offset="0.985" stop-color="#fff" stop-opacity="0.12"/><stop offset="1" stop-color="#fff" stop-opacity="0.3"/></linearGradient><radialGradient id="g518" cx="0.5" cy="0" r="0.75" gradientTransform="matrix(1.3,0,0,0.75,-0.15,0)"><stop offset="0" stop-color="#fff" stop-opacity="0.05"/><stop offset="1" stop-color="#fff" stop-opacity="0"/></radialGradient></defs><path d="M107 68 H111 Q114 68 114 71 V81 Q114 84 111 84 H107 Q104 84 104 81 V71 Q104 68 107 68 Z" fill="url(#f515)"/><path d="M107 68 H111 Q114 68 114 71 V81 Q114 84 111 84 H107 Q104 84 104 81 V71 Q104 68 107 68 Z" fill="url(#g518)"/><path d="M107 68 H111 Q114 68 114 71 V81 Q114 84 111 84 H107 Q104 84 104 81 V71 Q104 68 107 68 Z" fill="none" stroke="url(#h517)" stroke-width="2" clip-path="url(#c516)"/><path d="M107 68 H111 Q114 68 114 71 V81 Q114 84 111 84 H107 Q104 84 104 81 V71 Q104 68 107 68 Z" fill="none" stroke="#555761" stroke-opacity="0.36" stroke-width="1" stroke-linejoin="round"/><path d="M107 68 H111 Q114 68 114 71 V81 Q114 84 111 84 H107 Q104 84 104 81 V71 Q104 68 107 68 Z" fill="none" stroke="#555761" stroke-opacity="0.55" stroke-width="1" stroke-linejoin="round"/><defs><linearGradient id="f519" x1="0" y1="0" x2="0" y2="1"><stop offset="0" stop-color="#ffa154"/><stop offset="1" stop-color="#f37329"/></linearGradient><clipPath id="c520"><path d="M29 10 H95 Q104 10 104 19 V105 Q104 114 95 114 H29 Q20 114 20 105 V19 Q20 10 29 10 Z"/></clipPath><linearGradient id="h521" x1="0" y1="0" x2="0" y2="1"><stop offset="0" stop-color="#fff" stop-opacity="0.8"/><stop offset="0.015" stop-color="#fff" stop-opacity="0.24"/><stop offset="0.985" stop-color="#fff" stop-opacity="0.12"/><stop offset="1" stop-color="#fff" stop-opacity="0.3"/></linearGradient><radialGradient id="g522" cx="0.5" cy="0" r="0.75" gradientTransform="matrix(1.3,0,0,0.75,-0.15,0)"><stop offset="0" stop-color="#fff" stop-opacity="0.075"/><stop offset="1" stop-color="#fff" stop-opacity="0"/></radialGradient></defs><path d="M29 10 H95 Q104 10 104 19 V105 Q104 114 95 114 H29 Q20 114 20 105 V19 Q20 10 29 10 Z" fill="url(#f519)"/><path d="M29 10 H95 Q104 10 104 19 V105 Q104 114 95 114 H29 Q20 114 20 105 V19 Q20 10 29 10 Z" fill="url(#g522)"/><path d="M29 10 H95 Q104 10 104 19 V105 Q104 114 95 114 H29 Q20 114 20 105 V19 Q20 10 29 10 Z" fill="none" stroke="url(#h521)" stroke-width="2" clip-path="url(#c520)"/><path d="M29 10 H95 Q104 10 104 19 V105 Q104 114 95 114 H29 Q20 114 20 105 V19 Q20 10 29 10 Z" fill="none" stroke="#cc3b02" stroke-opacity="0.40" stroke-width="1" stroke-linejoin="round"/><path d="M29 10 H95 Q104 10 104 19 V105 Q104 114 95 114 H29 Q20 114 20 105 V19 Q20 10 29 10 Z" fill="none" stroke="#cc3b02" stroke-opacity="0.6" stroke-width="1" stroke-linejoin="round"/><rect x="28.5" y="11" width="1.6" height="102" fill="#cc3b02" opacity="0.45"/><rect x="30.1" y="11" width="1" height="102" fill="#fff" opacity="0.3"/><g transform="translate(0 1.5)" opacity="0.15"><g transform="translate(63 59) scale(1.0)" fill="#000"><circle cx="0" cy="-12" r="12"/><path d="M-20 26 a20 19 0 0 1 40 0 v1.5 a3.5 3.5 0 0 1 -3.5 3.5 H-16.5 a3.5 3.5 0 0 1 -3.5 -3.5 Z"/></g></g><g transform="translate(63 59) scale(1.0)" fill="#fff"><circle cx="0" cy="-12" r="12"/><path d="M-20 26 a20 19 0 0 1 40 0 v1.5 a3.5 3.5 0 0 1 -3.5 3.5 H-16.5 a3.5 3.5 0 0 1 -3.5 -3.5 Z"/></g></svg>
