<svg xmlns="http://www.w3.org/2000/svg" xmlns:xlink="http://www.w3.org/1999/xlink" xmlns:svg="http://www.w3.org/2000/svg" viewBox="0 0 128 128"><defs><radialGradient id="a477" cx="1" cy="0.5" r="1" gradientTransform="matrix(1,0,0,0.5,0,0.25)"><stop offset="0" stop-color="#181818" stop-opacity="1"/><stop offset="1" stop-color="#181818" stop-opacity="0"/></radialGradient><radialGradient id="b478" cx="0" cy="0.5" r="1" gradientTransform="matrix(1,0,0,0.5,0,0.25)"><stop offset="0" stop-color="#181818" stop-opacity="1"/><stop offset="1" stop-color="#181818" stop-opacity="0"/></radialGradient><linearGradient id="m479" x1="0" y1="0" x2="0" y2="1"><stop offset="0" stop-color="#181818" stop-opacity="0"/><stop offset="0.5" stop-color="#181818" stop-opacity="1"/><stop offset="1" stop-color="#181818" stop-opacity="0"/></linearGradient></defs><g opacity="0.36"><rect x="11.6" y="113.0" width="10.4" height="8" fill="url(#a477)"/><rect x="22.0" y="113.0" width="84" height="8" fill="url(#m479)"/><rect x="106.0" y="113.0" width="10.4" height="8" fill="url(#b478)"/></g><defs><linearGradient id="f480" x1="0" y1="0" x2="0" y2="1"><stop offset="0" stop-color="#fafafa"/><stop offset="1" stop-color="#dcdcdc"/></linearGradient><clipPath id="c481"><path d="M38 14 H102 Q110 14 110 22 V106 Q110 114 102 114 H38 Q30 114 30 106 V22 Q30 14 38 14 Z"/></clipPath><linearGradient id="h482" x1="0" y1="0" x2="0" y2="1"><stop offset="0" stop-color="#fff" stop-opacity="0.8"/><stop offset="0.030" stop-color="#fff" stop-opacity="0.24"/><stop offset="0.970" stop-color="#fff" stop-opacity="0.12"/><stop offset="1" stop-color="#fff" stop-opacity="0.3"/></linearGradient><radialGradient id="g483" cx="0.5" cy="0" r="0.75" gradientTransform="matrix(1.3,0,0,0.75,-0.15,0)"><stop offset="0" stop-color="#fff" stop-opacity="0.05"/><stop offset="1" stop-color="#fff" stop-opacity="0"/></radialGradient></defs><path d="M38 14 H102 Q110 14 110 22 V106 Q110 114 102 114 H38 Q30 114 30 106 V22 Q30 14 38 14 Z" fill="url(#f480)"/><path d="M38 14 H102 Q110 14 110 22 V106 Q110 114 102 114 H38 Q30 114 30 106 V22 Q30 14 38 14 Z" fill="url(#g483)"/><path d="M38 14 H102 Q110 14 110 22 V106 Q110 114 102 114 H38 Q30 114 30 106 V22 Q30 14 38 14 Z" fill="none" stroke="url(#h482)" stroke-width="4" clip-path="url(#c481)"/><path d="M38 14 H102 Q110 14 110 22 V106 Q110 114 102 114 H38 Q30 114 30 106 V22 Q30 14 38 14 Z" fill="none" stroke="#555761" stroke-opacity="0.36" stroke-width="2" stroke-linejoin="round"/><path d="M38 14 H102 Q110 14 110 22 V106 Q110 114 102 114 H38 Q30 114 30 106 V22 Q30 14 38 14 Z" fill="none" stroke="#555761" stroke-opacity="0.5" stroke-width="2" stroke-linejoin="round"/><path d="M103.0 18 V110" stroke="#abacae" stroke-width="2" opacity="0.8"/><path d="M105.2 19 V109" stroke="#abacae" stroke-width="2" opacity="0.8"/><path d="M107.4 20 V108" stroke="#abacae" stroke-width="2" opacity="0.8"/><defs><linearGradient id="f484" x1="0" y1="0" x2="0" y2="1"><stop offset="0" stop-color="#fafafa"/><stop offset="1" stop-color="#d4d4d4"/></linearGradient><clipPath id="c485"><path d="M107 24 H111 Q114 24 114 27 V37 Q114 40 111 40 H107 Q104 40 104 37 V27 Q104 24 107 24 Z"/></clipPath><linearGradient id="h486" x1="0" y1="0" x2="0" y2="1"><stop offset="0" stop-color="#fff" stop-opacity="0.8"/><stop offset="0.030" stop-color="#fff" stop-opacity="0.24"/><stop offset="0.970" stop-color="#fff" stop-opacity="0.12"/><stop offset="1" stop-color="#fff" stop-opacity="0.3"/></linearGradient><radialGradient id="g487" cx="0.5" cy="0" r="0.75" gradientTransform="matrix(1.3,0,0,0.75,-0.15,0)"><stop offset="0" stop-color="#fff" stop-opacity="0.05"/><stop offset="1" stop-color="#fff" stop-opacity="0"/></radialGradient></defs><path d="M107 24 H111 Q114 24 114 27 V37 Q114 40 111 40 H107 Q104 40 104 37 V27 Q104 24 107 24 Z" fill="url(#f484)"/><path d="M107 24 H111 Q114 24 114 27 V37 Q114 40 111 40 H107 Q104 40 104 37 V27 Q104 24 107 24 Z" fill="url(#g487)"/><path d="M107 24 H111 Q114 24 114 27 V37 Q114 40 111 40 H107 Q104 40 104 37 V27 Q104 24 107 24 Z" fill="none" stroke="url(#h486)" stroke-width="4" clip-path="url(#c485)"/><path d="M107 24 H111 Q114 24 114 27 V37 Q114 40 111 40 H107 Q104 40 104 37 V27 Q104 24 107 24 Z" fill="none" stroke="#555761" stroke-opacity="0.36" stroke-width="2" stroke-linejoin="round"/><path d="M107 24 H111 Q114 24 114 27 V37 Q114 40 111 40 H107 Q104 40 104 37 V27 Q104 24 107 24 Z" fill="none" stroke="#555761" stroke-opacity="0.55" stroke-width="2" stroke-linejoin="round"/><defs><linearGradient id="f488" x1="0" y1="0" x2="0" y2="1"><stop offset="0" stop-color="#fafafa"/><stop offset="1" stop-color="#d4d4d4"/></linearGradient><clipPath id="c489"><path d="M107 46 H111 Q114 46 114 49 V59 Q114 62 111 62 H107 Q104 62 104 59 V49 Q104 46 107 46 Z"/></clipPath><linearGradient id="h490" x1="0" y1="0" x2="0" y2="1"><stop offset="0" stop-color="#fff" stop-opacity="0.8"/><stop offset="0.030" stop-color="#fff" stop-opacity="0.24"/><stop offset="0.970" stop-color="#fff" stop-opacity="0.12"/><stop offset="1" stop-color="#fff" stop-opacity="0.3"/></linearGradient><radialGradient id="g491" cx="0.5" cy="0" r="0.75" gradientTransform="matrix(1.3,0,0,0.75,-0.15,0)"><stop offset="0" stop-color="#fff" stop-opacity="0.05"/><stop offset="1" stop-color="#fff" stop-opacity="0"/></radialGradient></defs><path d="M107 46 H111 Q114 46 114 49 V59 Q114 62 111 62 H107 Q104 62 104 59 V49 Q104 46 107 46 Z" fill="url(#f488)"/><path d="M107 46 H111 Q114 46 114 49 V59 Q114 62 111 62 H107 Q104 62 104 59 V49 Q104 46 107 46 Z" fill="url(#g491)"/><path d="M107 46 H111 Q114 46 114 49 V59 Q114 62 111 62 H107 Q104 62 104 59 V49 Q104 46 107 46 Z" fill="none" stroke="url(#h490)" stroke-width="4" clip-path="url(#c489)"/><path d="M107 46 H111 Q114 46 114 49 V59 Q114 62 111 62 H107 Q104 62 104 59 V49 Q104 46 107 46 Z" fill="none" stroke="#555761" stroke-opacity="0.36" stroke-width="2" stroke-linejoin="round"/><path d="M107 46 H111 Q114 46 114 49 V59 Q114 62 111 62 H107 Q104 62 104 59 V49 Q104 46 107 46 Z" fill="none" stroke="#555761" stroke-opacity="0.55" stroke-width="2" stroke-linejoin="round"/><defs><linearGradient id="f492" x1="0" y1="0" x2="0" y2="1"><stop offset="0" stop-color="#fafafa"/><stop offset="1" stop-color="#d4d4d4"/></linearGradient><clipPath id="c493"><path d="M107 68 H111 Q114 68 114 71 V81 Q114 84 111 84 H107 Q104 84 104 81 V71 Q104 68 107 68 Z"/></clipPath><linearGradient id="h494" x1="0" y1="0" x2="0" y2="1"><stop offset="0" stop-color="#fff" stop-opacity="0.8"/><stop offset="0.030" stop-color="#fff" stop-opacity="0.24"/><stop offset="0.970" stop-color="#fff" stop-opacity="0.12"/><stop offset="1" stop-color="#fff" stop-opacity="0.3"/></linearGradient><radialGradient id="g495" cx="0.5" cy="0" r="0.75" gradientTransform="matrix(1.3,0,0,0.75,-0.15,0)"><stop offset="0" stop-color="#fff" stop-opacity="0.05"/><stop offset="1" stop-color="#fff" stop-opacity="0"/></radialGradient></defs><path d="M107 68 H111 Q114 68 114 71 V81 Q114 84 111 84 H107 Q104 84 104 81 V71 Q104 68 107 68 Z" fill="url(#f492)"/><path d="M107 68 H111 Q114 68 114 71 V81 Q114 84 111 84 H107 Q104 84 104 81 V71 Q104 68 107 68 Z" fill="url(#g495)"/><path d="M107 68 H111 Q114 68 114 71 V81 Q114 84 111 84 H107 Q104 84 104 81 V71 Q104 68 107 68 Z" fill="none" stroke="url(#h494)" stroke-width="4" clip-path="url(#c493)"/><path d="M107 68 H111 Q114 68 114 71 V81 Q114 84 111 84 H107 Q104 84 104 81 V71 Q104 68 107 68 Z" fill="none" stroke="#555761" stroke-opacity="0.36" stroke-width="2" stroke-linejoin="round"/><path d="M107 68 H111 Q114 68 114 71 V81 Q114 84 111 84 H107 Q104 84 104 81 V71 Q104 68 107 68 Z" fill="none" stroke="#555761" stroke-opacity="0.55" stroke-width="2" stroke-linejoin="round"/><defs><linearGradient id="f496" x1="0" y1="0" x2="0" y2="1"><stop offset="0" stop-color="#ffa154"/><stop offset="1" stop-color="#f37329"/></linearGradient><clipPath id="c497"><path d="M29 10 H95 Q104 10 104 19 V105 Q104 114 95 114 H29 Q20 114 20 105 V19 Q20 10 29 10 Z"/></clipPath><linearGradient id="h498" x1="0" y1="0" x2="0" y2="1"><stop offset="0" stop-color="#fff" stop-opacity="0.8"/><stop offset="0.030" stop-color="#fff" stop-opacity="0.24"/><stop offset="0.970" stop-color="#fff" stop-opacity="0.12"/><stop offset="1" stop-color="#fff" stop-opacity="0.3"/></linearGradient><radialGradient id="g499" cx="0.5" cy="0" r="0.75" gradientTransform="matrix(1.3,0,0,0.75,-0.15,0)"><stop offset="0" stop-color="#fff" stop-opacity="0.075"/><stop offset="1" stop-color="#fff" stop-opacity="0"/></radialGradient></defs><path d="M29 10 H95 Q104 10 104 19 V105 Q104 114 95 114 H29 Q20 114 20 105 V19 Q20 10 29 10 Z" fill="url(#f496)"/><path d="M29 10 H95 Q104 10 104 19 V105 Q104 114 95 114 H29 Q20 114 20 105 V19 Q20 10 29 10 Z" fill="url(#g499)"/><path d="M29 10 H95 Q104 10 104 19 V105 Q104 114 95 114 H29 Q20 114 20 105 V19 Q20 10 29 10 Z" fill="none" stroke="url(#h498)" stroke-width="4" clip-path="url(#c497)"/><path d="M29 10 H95 Q104 10 104 19 V105 Q104 114 95 114 H29 Q20 114 20 105 V19 Q20 10 29 10 Z" fill="none" stroke="#cc3b02" stroke-opacity="0.40" stroke-width="2" stroke-linejoin="round"/><path d="M29 10 H95 Q104 10 104 19 V105 Q104 114 95 114 H29 Q20 114 20 105 V19 Q20 10 29 10 Z" fill="none" stroke="#cc3b02" stroke-opacity="0.6" stroke-width="2" stroke-linejoin="round"/><rect x="28.5" y="11" width="3.2" height="102" fill="#cc3b02" opacity="0.45"/><rect x="31.7" y="11" width="2" height="102" fill="#fff" opacity="0.3"/><g transform="translate(0 3.0)" opacity="0.15"><g transform="translate(63 59) scale(1.0)" fill="#000"><circle cx="0" cy="-12" r="12"/><path d="M-20 26 a20 19 0 0 1 40 0 v1.5 a3.5 3.5 0 0 1 -3.5 3.5 H-16.5 a3.5 3.5 0 0 1 -3.5 -3.5 Z"/></g></g><g transform="translate(63 59) scale(1.0)" fill="#fff"><circle cx="0" cy="-12" r="12"/><path d="M-20 26 a20 19 0 0 1 40 0 v1.5 a3.5 3.5 0 0 1 -3.5 3.5 H-16.5 a3.5 3.5 0 0 1 -3.5 -3.5 Z"/></g></svg>
